<?xml version="1.0" encoding="UTF-8" standalone="no"?>
<svg
   width="56250000"
   height="56250000"
   viewBox="0 0 56250000 56250000"
   version="1.1"
   xml:space="preserve"
   style="clip-rule:evenodd;fill-rule:evenodd;stroke-linecap:round;stroke-linejoin:round;stroke-miterlimit:10"
   id="svg13"
   xmlns="http://www.w3.org/2000/svg"
   xmlns:svg="http://www.w3.org/2000/svg"
   xmlns:serif="http://www.serif.com/"><defs
   id="defs13" />
    <g
   id="Layer-1"
   serif:id="Layer 1"
   transform="matrix(1.73611,0,0,1.73611,2187.5,0)">
        <g
   transform="matrix(6.09264,0,0,-6.09264,-1096.87,4587.35)"
   id="g1">
            <path
   d="m 218.858,433.289 c 9.002,-8.336 14.125,-20.066 14.123,-32.335 -0.002,-12.27 -5.128,-23.998 -14.132,-32.332"
   style="fill:none;fill-rule:nonzero;stroke:#000000;stroke-width:0.76px"
   id="path1" />
        </g>
        <g
   transform="matrix(6.09264,0,0,-6.09264,-1096.87,4587.35)"
   id="g2">
            <path
   d="m 427.169,433.289 c 9.002,-8.336 14.125,-20.066 14.124,-32.335 -0.002,-12.27 -5.128,-23.998 -14.133,-32.332"
   style="fill:none;fill-rule:nonzero;stroke:#000000;stroke-width:0.76px"
   id="path2" />
        </g>
        <g
   transform="matrix(6.09264,0,0,-6.09264,-1096.87,4587.32)"
   id="g3">
            <path
   d="m 413.167,418.165 c 4.794,-4.44 7.519,-10.678 7.518,-17.213 -10e-4,-6.534 -2.727,-12.772 -7.523,-17.211"
   style="fill:none;fill-rule:nonzero;stroke:#000000;stroke-width:0.76px"
   id="path3" />
        </g>
        <g
   transform="matrix(6.09264,0,0,-6.09264,-1096.87,4574.25)"
   id="g4">
            <path
   d="m 405.574,328.197 v 143.369 c 0.479,4.73 -4.883,10.092 -9.613,9.613 H 252.592 c -4.731,0.479 -10.093,-4.883 -9.613,-9.613 V 328.197 c -0.48,-4.731 4.882,-10.093 9.613,-9.613 h 143.369 c 4.73,-0.48 10.092,4.882 9.613,9.613 z"
   style="fill:none;fill-rule:nonzero;stroke:#000000;stroke-width:0.09px"
   id="path4" />
        </g>
        <g
   transform="matrix(6.09264,0,0,-6.09264,-1096.87,4587.32)"
   id="g5">
            <path
   d="m 204.855,418.165 c 4.795,-4.44 7.52,-10.678 7.519,-17.213 -0.001,-6.534 -2.728,-12.772 -7.523,-17.211"
   style="fill:none;fill-rule:nonzero;stroke:#000000;stroke-width:0.76px"
   id="path5" />
        </g>
        <g
   transform="matrix(6.09264,0,0,-6.09264,-1096.87,4587.33)"
   id="g6">
            <path
   d="m 420.168,425.727 c 6.897,-6.387 10.822,-15.375 10.821,-24.774 -0.002,-9.4 -3.929,-18.387 -10.828,-24.771"
   style="fill:none;fill-rule:nonzero;stroke:#000000;stroke-width:0.76px"
   id="path6" />
        </g>
        <g
   transform="matrix(6.09264,0,0,-6.09264,-1096.87,4587.33)"
   id="g7">
            <path
   d="m 211.857,425.727 c 6.896,-6.387 10.822,-15.375 10.82,-24.774 -0.001,-9.4 -3.929,-18.387 -10.828,-24.771"
   style="fill:none;fill-rule:nonzero;stroke:#000000;stroke-width:0.76px"
   id="path7" />
        </g>
        <g
   transform="matrix(6.09264,0,0,6.09264,-1096.87,-298.406)"
   id="g8">
            <text
   x="260.69199"
   y="499.005"
   style="font-size:8.066px;font-family:ArialMT, Arial, sans-serif"
   id="text7">*NO EXTERNAL <tspan
   x="322.996"
   y="499.005"
   id="tspan7">P</tspan>OWER NEEDED</text>
        </g>
        <g
   transform="matrix(6.09264,0,0,6.09264,-1096.87,-298.406)"
   id="g9">
            <text
   x="312.004"
   y="403.56799"
   style="font-size:15.28px;font-family:ArialMT, Arial, sans-serif"
   id="text8">NFC</text>
        </g>
        <g
   transform="matrix(6.09264,0,0,6.09264,-1096.87,-298.406)"
   id="g10">
            <text
   x="458.70901"
   y="405.495"
   style="font-size:15.28px;font-family:ArialMT, Arial, sans-serif"
   id="text9">OUTPUT</text>
        </g>
        <g
   transform="matrix(6.09264,0,0,6.09264,-1096.87,-298.406)"
   id="g11">
            <text
   x="456.79901"
   y="423.06799"
   style="font-size:15.28px;font-family:ArialMT, Arial, sans-serif"
   id="text10">&lt;WRITE&gt;</text>
        </g>
        <g
   transform="matrix(6.09264,0,0,6.09264,-1096.87,-298.406)"
   id="g12">
            <text
   x="81.359001"
   y="405.495"
   style="font-size:15.28px;font-family:ArialMT, Arial, sans-serif"
   id="text11">PA<tspan
   x="101.742"
   y="405.495"
   id="tspan11">R</tspan>AMETERS</text>
        </g>
        <g
   transform="matrix(6.09264,0,0,6.09264,-1096.87,-298.406)"
   id="g13">
            <text
   x="103.404"
   y="423.06799"
   style="font-size:15.28px;font-family:ArialMT, Arial, sans-serif"
   id="text12">&lt;READ&gt;</text>
        </g>
    </g>
</svg>
