<?xml version="1.0" encoding="UTF-8"?>
<svg id="Layer_1" data-name="Layer 1" xmlns="http://www.w3.org/2000/svg" viewBox="0 0 612 382.5">
  <defs>
    <style>
      .cls-1 {
        stroke-width: .96px;
      }

      .cls-1, .cls-2, .cls-3, .cls-4, .cls-5, .cls-6, .cls-7 {
        fill: none;
        stroke-linecap: round;
        stroke-linejoin: round;
      }

      .cls-1, .cls-4, .cls-5, .cls-7 {
        stroke: #ec1e24;
      }

      .cls-8 {
        font-family: Consolas, Consolas;
        font-size: 5.74px;
      }

      .cls-8, .cls-9 {
        isolation: isolate;
      }

      .cls-8, .cls-10 {
        fill: #231f20;
      }

      .cls-11 {
        opacity: .5;
      }

      .cls-2 {
        stroke-width: .12px;
      }

      .cls-2, .cls-3, .cls-6 {
        stroke: #cccbcb;
      }

      .cls-3 {
        stroke-width: .12px;
      }

      .cls-4 {
        stroke-dasharray: 0 0 0 1.62;
      }

      .cls-4, .cls-7 {
        stroke-width: .96px;
      }

      .cls-5 {
        stroke-dasharray: 0 0 0 1.65;
        stroke-width: .96px;
      }

      .cls-6 {
        stroke-width: .12px;
      }

      .cls-12 {
        fill: #fff3f3;
      }

      .cls-12, .cls-13, .cls-10 {
        stroke-width: 0px;
      }

      .cls-13 {
        fill: #cccbcb;
      }
    </style>
  </defs>
  <g id="Background-Color-Base-">
    <rect class="cls-12" width="612" height="382.5"/>
  </g>
  <g id="Layer-2">
    <g>
      <g class="cls-9">
        <text class="cls-8" transform="translate(351.25 194.92)"><tspan x="0" y="0">C</tspan></text>
        <text class="cls-8" transform="translate(355.32 194.92)"><tspan x="0" y="0">O</tspan></text>
        <text class="cls-8" transform="translate(359.38 194.92)"><tspan x="0" y="0">M</tspan></text>
        <text class="cls-8" transform="translate(363.45 194.92)"><tspan x="0" y="0">I</tspan></text>
        <text class="cls-8" transform="translate(367.52 194.92)"><tspan x="0" y="0">N</tspan></text>
        <text class="cls-8" transform="translate(371.59 194.92)"><tspan x="0" y="0">G</tspan></text>
        <text class="cls-8" transform="translate(375.66 194.92)"><tspan x="0" y="0"> </tspan></text>
        <text class="cls-8" transform="translate(381.38 194.92)"><tspan x="0" y="0">S</tspan></text>
        <text class="cls-8" transform="translate(385.45 194.92)"><tspan x="0" y="0">O</tspan></text>
        <text class="cls-8" transform="translate(389.52 194.92)"><tspan x="0" y="0">O</tspan></text>
        <text class="cls-8" transform="translate(393.58 194.92)"><tspan x="0" y="0">N</tspan></text>
        <text class="cls-8" transform="translate(397.65 194.92)"><tspan x="0" y="0">.</tspan></text>
        <text class="cls-8" transform="translate(401.72 194.92)"><tspan x="0" y="0">.</tspan></text>
        <text class="cls-8" transform="translate(405.79 194.92)"><tspan x="0" y="0">.</tspan></text>
        <text class="cls-8" transform="translate(409.86 194.92)"><tspan x="0" y="0"> </tspan></text>
        <text class="cls-8" transform="translate(415.58 194.92)"><tspan x="0" y="0">S</tspan></text>
        <text class="cls-8" transform="translate(419.65 194.92)"><tspan x="0" y="0">I</tspan></text>
        <text class="cls-8" transform="translate(423.72 194.92)"><tspan x="0" y="0">G</tspan></text>
        <text class="cls-8" transform="translate(427.79 194.92)"><tspan x="0" y="0">N</tspan></text>
        <text class="cls-8" transform="translate(431.85 194.92)"><tspan x="0" y="0"> </tspan></text>
        <text class="cls-8" transform="translate(437.58 194.92)"><tspan x="0" y="0">U</tspan></text>
        <text class="cls-8" transform="translate(441.65 194.92)"><tspan x="0" y="0">P</tspan></text>
        <text class="cls-8" transform="translate(445.71 194.92)"><tspan x="0" y="0"> </tspan></text>
        <text class="cls-8" transform="translate(451.44 194.92)"><tspan x="0" y="0">T</tspan></text>
        <text class="cls-8" transform="translate(455.51 194.92)"><tspan x="0" y="0">O</tspan></text>
        <text class="cls-8" transform="translate(459.58 194.92)"><tspan x="0" y="0"> </tspan></text>
        <text class="cls-8" transform="translate(465.3 194.92)"><tspan x="0" y="0">G</tspan></text>
        <text class="cls-8" transform="translate(469.37 194.92)"><tspan x="0" y="0">E</tspan></text>
        <text class="cls-8" transform="translate(473.44 194.92)"><tspan x="0" y="0">T</tspan></text>
        <text class="cls-8" transform="translate(477.51 194.92)"><tspan x="0" y="0"> </tspan></text>
        <text class="cls-8" transform="translate(483.23 194.92)"><tspan x="0" y="0">N</tspan></text>
        <text class="cls-8" transform="translate(487.3 194.92)"><tspan x="0" y="0">O</tspan></text>
        <text class="cls-8" transform="translate(491.37 194.92)"><tspan x="0" y="0">T</tspan></text>
        <text class="cls-8" transform="translate(495.43 194.92)"><tspan x="0" y="0">I</tspan></text>
        <text class="cls-8" transform="translate(499.5 194.92)"><tspan x="0" y="0">F</tspan></text>
        <text class="cls-8" transform="translate(503.57 194.92)"><tspan x="0" y="0">I</tspan></text>
        <text class="cls-8" transform="translate(507.64 194.92)"><tspan x="0" y="0">E</tspan></text>
        <text class="cls-8" transform="translate(511.71 194.92)"><tspan x="0" y="0">D</tspan></text>
      </g>
      <rect class="cls-10" x="415.58" y="195.67" width="30.13" height=".4"/>
    </g>
    <g class="cls-9">
      <text class="cls-8" transform="translate(215.3 194.92)"><tspan x="0" y="0">I</tspan></text>
      <text class="cls-8" transform="translate(219.37 194.92)"><tspan x="0" y="0">N</tspan></text>
      <text class="cls-8" transform="translate(223.43 194.92)"><tspan x="0" y="0"> </tspan></text>
      <text class="cls-8" transform="translate(229.16 194.92)"><tspan x="0" y="0">P</tspan></text>
      <text class="cls-8" transform="translate(233.23 194.92)"><tspan x="0" y="0">R</tspan></text>
      <text class="cls-8" transform="translate(237.29 194.92)"><tspan x="0" y="0">O</tspan></text>
      <text class="cls-8" transform="translate(241.36 194.92)"><tspan x="0" y="0">G</tspan></text>
      <text class="cls-8" transform="translate(245.43 194.92)"><tspan x="0" y="0">R</tspan></text>
      <text class="cls-8" transform="translate(249.5 194.92)"><tspan x="0" y="0">E</tspan></text>
      <text class="cls-8" transform="translate(253.57 194.92)"><tspan x="0" y="0">S</tspan></text>
      <text class="cls-8" transform="translate(257.63 194.92)"><tspan x="0" y="0">S</tspan></text>
    </g>
  </g>
  <g id="Layer-4">
    <path class="cls-7" d="M274.3,184.14h0"/>
    <path class="cls-5" d="M275.47,185.29c1.24,1.52,2.49,3.93,3.73,6.4"/>
    <path class="cls-7" d="M279.57,192.43h0"/>
    <path class="cls-7" d="M279.57,192.43h0"/>
    <path class="cls-4" d="M280.3,193.88c2.17,4.24,4.01,7.34,5.86,7.34,2.08,0,4.15-3.92,6.23-8.06"/>
    <path class="cls-7" d="M292.75,192.43h0"/>
    <path class="cls-7" d="M292.75,192.43h0"/>
    <path class="cls-4" d="M293.48,190.99c1.95-3.86,3.91-7.34,5.86-7.34,2.08,0,4.15,3.92,6.23,8.06"/>
    <path class="cls-7" d="M305.93,192.43h0"/>
    <path class="cls-3" d="M332.29,192.43c1.76-3.51,3.51-7.03,5.27-8.29"/>
    <path class="cls-2" d="M274.3,200.73c1.76-1.27,3.51-4.78,5.27-8.3"/>
    <path class="cls-6" d="M319.11,192.43c2.2,4.39,4.39,8.79,6.59,8.79,2.05,0,4.1-3.82,6.59-8.79"/>
    <path class="cls-6" d="M305.93,192.43c2.2-4.39,4.39-8.79,6.59-8.79s4.39,4.39,6.59,8.79"/>
    <path class="cls-6" d="M292.75,192.43c2.2,4.39,4.39,8.79,6.59,8.79s4.39-4.39,6.59-8.79"/>
    <path class="cls-6" d="M279.57,192.43c2.49-4.97,4.54-8.79,6.59-8.79,2.2,0,4.39,4.39,6.59,8.79"/>
    <g class="cls-11">
      <path class="cls-13" d="M299.34,179.26v34.27l13.18-7.91v-34.27l-13.18,7.91Z"/>
    </g>
    <path class="cls-7" d="M305.93,192.43c2.2,4.39,4.39,8.79,6.59,8.79s4.39-4.39,6.59-8.79"/>
    <path class="cls-7" d="M319.11,192.43c2.2-4.39,4.39-8.79,6.59-8.79,2.05,0,4.1,3.82,6.59,8.79"/>
    <path class="cls-1" d="M332.29,192.43c1.76,3.51,3.52,7.03,5.27,8.29"/>
  </g>
</svg>